<svg width="94" height="93" viewBox="0 0 94 93" fill="none" xmlns="http://www.w3.org/2000/svg">
<path fill-rule="evenodd" clip-rule="evenodd" d="M22.2513 4.07359C17.3697 -0.807963 9.45515 -0.807962 4.5736 4.07359C-0.307958 8.95514 -0.307956 16.8697 4.5736 21.7513L29.3223 46.5L4.57359 71.2487C-0.307963 76.1303 -0.307962 84.0449 4.57359 88.9264C9.45514 93.808 17.3697 93.808 22.2513 88.9264L47 64.1777L71.7487 88.9264C76.6303 93.808 84.5449 93.808 89.4264 88.9264C94.308 84.0449 94.308 76.1303 89.4264 71.2487L64.6777 46.5L89.4264 21.7513C94.308 16.8697 94.308 8.95515 89.4264 4.07359C84.5449 -0.807961 76.6303 -0.807959 71.7487 4.07359L47 28.8223L22.2513 4.07359Z" fill="black"/>
</svg>
