<svg width="91" height="91" viewBox="0 0 91 91" fill="none" xmlns="http://www.w3.org/2000/svg">
<path fill-rule="evenodd" clip-rule="evenodd" d="M13.8033 3.12564C10.8744 0.196707 6.12563 0.196706 3.1967 3.12564C0.267767 6.05457 0.267767 10.8033 3.1967 13.7322L34.981 45.5165L3.12562 77.3719C0.196692 80.3008 0.196691 85.0495 3.12562 87.9785C6.05456 90.9074 10.8033 90.9074 13.7322 87.9785L45.5876 56.1231L77.4429 87.9785C80.3718 90.9074 85.1206 90.9074 88.0495 87.9785C90.9784 85.0495 90.9784 80.3008 88.0495 77.3719L56.1942 45.5165L87.9784 13.7322C90.9074 10.8033 90.9074 6.05457 87.9784 3.12564C85.0495 0.196708 80.3008 0.196708 77.3718 3.12564L45.5876 34.9099L13.8033 3.12564Z" fill="black"/>
</svg>
